<?xml version="1.0" encoding="UTF-8" standalone="no"?>
<svg
   version="1.1"
   id="svg1"
   width="800"
   height="550"
   viewBox="0 0 800 550"
   sodipodi:docname="mobile-tablet_1760638936.svg"
   inkscape:version="1.4 (e7c3feb100, 2024-10-09)"
   xmlns:inkscape="http://www.inkscape.org/namespaces/inkscape"
   xmlns:sodipodi="http://sodipodi.sourceforge.net/DTD/sodipodi-0.dtd"
   xmlns="http://www.w3.org/2000/svg"
   xmlns:svg="http://www.w3.org/2000/svg">
  <defs
     id="defs1">
    <clipPath
       clipPathUnits="userSpaceOnUse"
       id="clipPath4">
      <path
         d="M 0,600 H 600 V 0 H 0 Z"
         transform="translate(-93.953605,-184.5049)"
         id="path4" />
    </clipPath>
    <clipPath
       clipPathUnits="userSpaceOnUse"
       id="clipPath6">
      <path
         d="M 0,600 H 600 V 0 H 0 Z"
         transform="translate(-99.432602,-193.0498)"
         id="path6" />
    </clipPath>
    <clipPath
       clipPathUnits="userSpaceOnUse"
       id="clipPath8">
      <path
         d="M 0,600 H 600 V 0 H 0 Z"
         transform="translate(-98.308105,-197.24511)"
         id="path8" />
    </clipPath>
    <clipPath
       clipPathUnits="userSpaceOnUse"
       id="clipPath10">
      <path
         d="M 0,600 H 600 V 0 H 0 Z"
         transform="translate(-112.5586,-170.8818)"
         id="path10" />
    </clipPath>
    <clipPath
       clipPathUnits="userSpaceOnUse"
       id="clipPath12">
      <path
         d="M 0,600 H 600 V 0 H 0 Z"
         transform="translate(-138.5527,-185.9238)"
         id="path12" />
    </clipPath>
    <clipPath
       clipPathUnits="userSpaceOnUse"
       id="clipPath14">
      <path
         d="M 0,600 H 600 V 0 H 0 Z"
         transform="translate(-221.09961,-437.79001)"
         id="path14" />
    </clipPath>
    <clipPath
       clipPathUnits="userSpaceOnUse"
       id="clipPath16">
      <path
         d="M 0,600 H 600 V 0 H 0 Z"
         transform="translate(-268.2949,-360.50881)"
         id="path16" />
    </clipPath>
    <clipPath
       clipPathUnits="userSpaceOnUse"
       id="clipPath18">
      <path
         d="M 0,600 H 600 V 0 H 0 Z"
         transform="translate(-216.3052,-366.63531)"
         id="path18" />
    </clipPath>
    <clipPath
       clipPathUnits="userSpaceOnUse"
       id="clipPath20">
      <path
         d="M 0,600 H 600 V 0 H 0 Z"
         transform="translate(-225.25881,-382.71481)"
         id="path20" />
    </clipPath>
    <clipPath
       clipPathUnits="userSpaceOnUse"
       id="clipPath22">
      <path
         d="M 0,600 H 600 V 0 H 0 Z"
         transform="translate(-224.25541,-420.33791)"
         id="path22" />
    </clipPath>
    <clipPath
       clipPathUnits="userSpaceOnUse"
       id="clipPath24">
      <path
         d="M 0,600 H 600 V 0 H 0 Z"
         transform="translate(-199.5234,-319.04591)"
         id="path24" />
    </clipPath>
    <clipPath
       clipPathUnits="userSpaceOnUse"
       id="clipPath26">
      <path
         d="M 0,600 H 600 V 0 H 0 Z"
         transform="translate(-203.61081,-296.4346)"
         id="path26" />
    </clipPath>
    <clipPath
       clipPathUnits="userSpaceOnUse"
       id="clipPath28">
      <path
         d="M 0,600 H 600 V 0 H 0 Z"
         transform="translate(-237.86671,-283.19821)"
         id="path28" />
    </clipPath>
  </defs>
  <sodipodi:namedview
     id="namedview1"
     pagecolor="#ffffff"
     bordercolor="#000000"
     borderopacity="0.25"
     inkscape:showpageshadow="2"
     inkscape:pageopacity="0.0"
     inkscape:pagecheckerboard="0"
     inkscape:deskcolor="#d1d1d1"
     inkscape:zoom="0.7625"
     inkscape:cx="400"
     inkscape:cy="441.31148"
     inkscape:window-width="1920"
     inkscape:window-height="1022"
     inkscape:window-x="0"
     inkscape:window-y="0"
     inkscape:window-maximized="1"
     inkscape:current-layer="g1">
    <inkscape:page
       x="0"
       y="0"
       inkscape:label="1"
       id="page1"
       width="800"
       height="550"
       margin="175.81334 4.9759998 123.628 8.791667"
       bleed="0" />
  </sodipodi:namedview>
  <g
     id="g1"
     inkscape:groupmode="layer"
     inkscape:label="1">
    <g
       id="group-MC0"
       transform="translate(-1.9073743,-98.907366)">
      <path
         id="path2"
         d="m 0,0 -30.819,-91.355 179.748,48.163 z"
         style="fill:#7f7e86;fill-opacity:1;fill-rule:evenodd;stroke:none"
         transform="matrix(1.3333333,0,0,-1.3333333,49.883467,373.7324)" />
      <path
         id="path3"
         d="m 0,0 c -10.405,-2.788 -21.245,3.47 -24.034,13.875 l -52.995,197.783 c -2.788,10.405 3.47,21.246 13.876,24.034 l 322.52,86.418 c 10.405,2.789 21.245,-3.469 24.033,-13.875 l 52.995,-197.782 c 2.789,-10.406 -3.47,-21.246 -13.875,-24.034 z"
         style="fill:#bcb8c2;fill-opacity:1;fill-rule:evenodd;stroke:none"
         transform="matrix(1.3333333,0,0,-1.3333333,125.27147,553.99347)"
         clip-path="url(#clipPath4)" />
      <path
         id="path5"
         d="m 0,0 c -8.157,-2.185 -16.659,2.723 -18.845,10.879 l -52.301,195.192 c -2.185,8.156 2.724,16.658 10.88,18.844 L 258.027,310.2 c 8.156,2.186 16.659,-2.724 18.844,-10.879 L 329.172,104.13 c 2.186,-8.156 -2.723,-16.657 -10.878,-18.844 z"
         style="fill:#e1dde6;fill-opacity:1;fill-rule:evenodd;stroke:none"
         transform="matrix(1.3333333,0,0,-1.3333333,132.5768,542.60027)"
         clip-path="url(#clipPath6)" />
      <path
         id="path7"
         d="m 0,0 318.293,85.286 c 5.875,1.575 9.383,7.65 7.81,13.525 l -52.301,195.19 c -1.576,5.875 -7.651,9.383 -13.526,7.809 L -58.017,216.523 c -5.876,-1.573 -9.383,-7.649 -7.808,-13.525 L -13.524,7.81 C -11.95,1.934 -5.875,-1.575 0,0"
         style="fill:#2d2b2d;fill-opacity:1;fill-rule:evenodd;stroke:none"
         transform="matrix(1.3333333,0,0,-1.3333333,131.07747,537.00653)"
         clip-path="url(#clipPath8)" />
      <path
         id="path9"
         d="m 0,0 139.943,-37.497 c 7.589,-2.033 14.564,-2.033 22.153,0 l 317.927,85.189 c 4.915,1.315 4.914,8.334 0,9.651 L 340.08,94.84 c -7.589,2.034 -14.562,2.034 -22.153,0 L 0,9.652 C -4.915,8.335 -4.915,1.316 0,0"
         style="fill:#46454b;fill-opacity:1;fill-rule:evenodd;stroke:none"
         transform="matrix(1.3333333,0,0,-1.3333333,150.07813,572.1576)"
         clip-path="url(#clipPath10)" />
      <path
         id="path11"
         d="m 0,0 c -0.677,-0.178 -0.748,-0.449 -0.162,-0.605 4.18,-1.123 8.294,-2.227 12.409,-3.341 0.585,-0.159 1.615,-0.14 2.281,0.04 4.916,1.319 9.85,2.626 14.809,3.957 0.638,0.17 0.705,0.454 0.12,0.611 C 25.314,1.774 21.213,2.878 17.035,3.998 16.449,4.156 15.432,4.133 14.767,3.954 9.821,2.628 4.935,1.308 0,0 m 22.418,5.996 c 4.946,1.325 9.791,2.631 14.723,3.946 0.694,0.185 1.725,0.206 2.296,0.052 C 43.586,8.867 47.729,7.76 51.872,6.645 52.457,6.487 52.374,6.216 51.65,6.021 46.777,4.723 41.905,3.404 36.943,2.09 36.265,1.909 35.219,1.884 34.633,2.042 30.506,3.149 26.419,4.272 22.241,5.394 21.655,5.552 21.753,5.819 22.418,5.996 m 22.403,5.996 c -0.722,-0.193 -0.791,-0.47 -0.22,-0.623 4.176,-1.119 8.306,-2.224 12.463,-3.342 0.571,-0.152 1.6,-0.132 2.295,0.053 4.887,1.309 9.79,2.622 14.736,3.939 0.694,0.186 0.792,0.47 0.222,0.623 -4.157,1.118 -8.286,2.219 -12.463,3.342 -0.57,0.153 -1.601,0.132 -2.295,-0.052 -4.932,-1.313 -9.85,-2.63 -14.738,-3.94 m 23.357,6.248 c -0.664,-0.179 -0.733,-0.455 -0.163,-0.606 4.177,-1.123 8.291,-2.237 12.448,-3.356 0.57,-0.153 1.601,-0.133 2.294,0.052 4.83,1.295 9.704,2.596 14.592,3.906 0.665,0.179 0.75,0.451 0.164,0.609 -4.157,1.114 -8.3,2.22 -12.474,3.341 C 84.467,22.34 83.437,22.319 82.8,22.149 77.883,20.832 73.038,19.542 68.178,18.24 m 22.172,5.933 c -0.637,-0.169 -0.763,-0.454 -0.192,-0.608 4.146,-1.128 8.289,-2.234 12.446,-3.349 0.585,-0.157 1.615,-0.138 2.309,0.048 4.887,1.301 9.834,2.627 14.794,3.947 0.68,0.181 0.72,0.448 0.135,0.608 -4.128,1.119 -8.227,2.223 -12.431,3.353 -0.571,0.151 -1.601,0.133 -2.294,-0.054 -4.947,-1.321 -9.865,-2.64 -14.767,-3.945 m 22.375,5.969 c 4.888,1.309 9.776,2.618 14.737,3.946 0.666,0.179 1.709,0.209 2.295,0.053 4.173,-1.12 8.318,-2.217 12.443,-3.35 0.544,-0.149 0.471,-0.436 -0.193,-0.613 -4.918,-1.324 -9.821,-2.629 -14.723,-3.936 -0.695,-0.183 -1.709,-0.209 -2.294,-0.052 -4.157,1.113 -8.283,2.217 -12.429,3.344 -0.585,0.16 -0.53,0.423 0.164,0.608 m 23.27,6.231 c -0.665,-0.177 -0.75,-0.45 -0.164,-0.605 4.172,-1.119 8.329,-2.234 12.486,-3.347 0.569,-0.152 1.6,-0.134 2.265,0.043 4.975,1.332 9.848,2.63 14.736,3.94 0.665,0.179 0.736,0.456 0.164,0.608 -4.155,1.114 -8.312,2.226 -12.484,3.344 -0.586,0.158 -1.602,0.135 -2.267,-0.043 -4.888,-1.31 -9.762,-2.608 -14.736,-3.94 m 22.315,5.969 c 4.905,1.307 9.793,2.618 14.651,3.917 0.665,0.179 1.725,0.205 2.294,0.052 4.186,-1.121 8.343,-2.232 12.527,-3.339 0.571,-0.153 0.501,-0.43 -0.221,-0.623 -4.859,-1.302 -9.763,-2.608 -14.65,-3.917 -0.694,-0.188 -1.724,-0.203 -2.309,-0.048 -4.156,1.113 -8.297,2.222 -12.485,3.345 -0.585,0.157 -0.499,0.429 0.193,0.613 m 22.332,5.967 c -0.665,-0.177 -0.764,-0.462 -0.193,-0.616 4.17,-1.117 8.326,-2.23 12.483,-3.342 0.569,-0.154 1.627,-0.127 2.294,0.05 4.929,1.314 9.789,2.622 14.721,3.927 0.679,0.182 0.749,0.454 0.151,0.612 -4.186,1.108 -8.341,2.219 -12.512,3.337 -0.57,0.152 -1.613,0.137 -2.279,-0.04 -4.918,-1.317 -9.762,-2.623 -14.665,-3.928 m 23.24,6.217 c 4.888,1.309 9.836,2.63 14.796,3.953 0.694,0.184 1.724,0.205 2.295,0.052 4.198,-1.125 8.355,-2.233 12.523,-3.336 0.586,-0.156 0.484,-0.443 -0.209,-0.631 -4.916,-1.316 -9.877,-2.635 -14.779,-3.942 -0.725,-0.192 -1.738,-0.213 -2.321,-0.059 -4.185,1.108 -8.342,2.219 -12.526,3.34 -0.569,0.153 -0.5,0.429 0.221,0.623 m 22.374,5.985 c -0.693,-0.185 -0.764,-0.463 -0.194,-0.615 4.227,-1.119 8.383,-2.23 12.553,-3.344 0.57,-0.152 1.6,-0.138 2.294,0.049 4.83,1.297 9.734,2.602 14.678,3.929 0.667,0.178 0.764,0.464 0.194,0.615 -4.199,1.108 -8.352,2.219 -12.536,3.34 -0.585,0.158 -1.643,0.13 -2.308,-0.047 -4.947,-1.327 -9.822,-2.625 -14.681,-3.927 m 22.288,5.964 c 4.932,1.313 9.864,2.628 14.779,3.945 0.667,0.178 1.683,0.2 2.281,0.04 4.181,-1.121 8.366,-2.227 12.536,-3.34 0.568,-0.152 0.499,-0.431 -0.165,-0.607 -4.932,-1.315 -9.849,-2.633 -14.795,-3.957 -0.664,-0.178 -1.709,-0.192 -2.279,-0.04 -4.156,1.11 -8.31,2.223 -12.493,3.344 -0.6,0.16 -0.528,0.437 0.136,0.615 m 23.328,6.228 c -0.693,-0.187 -0.778,-0.459 -0.193,-0.615 4.181,-1.122 8.336,-2.234 12.533,-3.341 0.571,-0.151 1.6,-0.134 2.294,0.052 4.902,1.306 9.848,2.629 14.808,3.952 0.695,0.185 0.808,0.467 0.209,0.626 -4.184,1.108 -8.352,2.22 -12.533,3.341 -0.584,0.156 -1.613,0.139 -2.307,-0.048 -4.948,-1.324 -9.893,-2.65 -14.811,-3.967 M 20.624,-5.602 c 4.382,1.169 8.793,2.36 13.204,3.534 0.636,0.169 1.774,0.121 2.599,-0.1 5.972,-1.6 11.858,-3.18 17.824,-4.793 0.785,-0.211 0.994,-0.545 0.387,-0.707 -4.382,-1.175 -8.793,-2.351 -13.16,-3.52 -0.607,-0.166 -1.79,-0.113 -2.599,0.104 -5.971,1.603 -11.911,3.194 -17.853,4.786 -0.824,0.22 -1.009,0.535 -0.402,0.696 M 81.71,10.724 c 4.468,1.189 8.808,2.355 13.175,3.517 0.636,0.172 1.803,0.125 2.613,-0.095 5.928,-1.6 11.853,-3.194 17.78,-4.787 0.825,-0.222 1.009,-0.535 0.372,-0.707 -4.337,-1.162 -8.706,-2.338 -13.145,-3.518 -0.607,-0.162 -1.775,-0.114 -2.599,0.107 -5.971,1.6 -11.852,3.194 -17.809,4.79 -0.81,0.216 -0.994,0.531 -0.387,0.693 M 40.726,-0.228 c -0.607,-0.162 -0.495,-0.493 0.315,-0.71 5.957,-1.597 11.867,-3.184 17.808,-4.791 0.825,-0.221 2.008,-0.273 2.673,-0.096 4.396,1.174 8.851,2.366 13.203,3.531 0.607,0.161 0.409,0.479 -0.416,0.7 C 68.354,0.003 62.425,1.581 56.5,3.195 55.716,3.41 54.522,3.462 53.916,3.298 49.578,2.131 45.093,0.942 40.726,-0.228 m 20.059,5.354 c 4.367,1.168 8.792,2.354 13.203,3.536 0.607,0.162 1.775,0.114 2.585,-0.105 C 82.53,6.962 88.411,5.369 94.381,3.77 95.206,3.549 95.39,3.235 94.783,3.073 90.358,1.888 85.948,0.699 81.551,-0.474 80.945,-0.634 79.747,-0.587 78.922,-0.365 72.98,1.242 67.026,2.818 61.099,4.42 60.29,4.639 60.178,4.962 60.785,5.126 m 40.939,10.942 c -0.635,-0.17 -0.452,-0.481 0.374,-0.704 5.926,-1.588 11.837,-3.191 17.777,-4.779 0.825,-0.223 2.009,-0.272 2.645,-0.1 4.309,1.16 8.704,2.345 13.131,3.525 0.634,0.169 0.451,0.477 -0.358,0.692 -5.956,1.597 -11.88,3.185 -17.823,4.777 -0.825,0.221 -1.992,0.265 -2.6,0.104 -4.439,-1.176 -8.807,-2.354 -13.146,-3.515 m 19.971,5.344 c 4.41,1.181 8.808,2.358 13.233,3.54 0.55,0.149 1.731,0.095 2.542,-0.124 5.957,-1.598 11.867,-3.18 17.822,-4.774 0.826,-0.22 1.01,-0.537 0.402,-0.699 -4.41,-1.167 -8.778,-2.336 -13.203,-3.526 -0.577,-0.156 -1.746,-0.106 -2.556,0.109 -5.971,1.6 -11.866,3.197 -17.81,4.79 -0.823,0.219 -1.007,0.53 -0.43,0.684 m 20.883,5.583 c -0.607,-0.164 -0.408,-0.48 0.401,-0.697 5.943,-1.596 11.868,-3.182 17.824,-4.777 0.811,-0.216 1.978,-0.266 2.585,-0.105 4.339,1.17 8.778,2.353 13.203,3.539 0.607,0.162 0.425,0.474 -0.387,0.692 -5.956,1.594 -11.867,3.177 -17.823,4.777 -0.81,0.216 -1.977,0.264 -2.585,0.102 -4.424,-1.185 -8.88,-2.364 -13.218,-3.531 m 20.131,5.381 c 4.354,1.151 8.691,2.321 13.102,3.497 0.608,0.162 1.775,0.112 2.57,-0.1 5.955,-1.596 11.867,-3.18 17.823,-4.776 0.811,-0.217 1.009,-0.533 0.403,-0.696 -4.398,-1.179 -8.751,-2.338 -13.104,-3.497 -0.607,-0.16 -1.804,-0.12 -2.612,0.096 -5.958,1.595 -11.869,3.179 -17.825,4.776 -0.81,0.219 -0.979,0.537 -0.357,0.7 m 19.927,5.325 c -0.607,-0.162 -0.423,-0.476 0.386,-0.692 5.942,-1.593 11.883,-3.184 17.81,-4.774 0.81,-0.215 1.979,-0.271 2.601,-0.105 4.412,1.167 8.778,2.344 13.173,3.521 0.607,0.162 0.453,0.484 -0.372,0.703 -5.927,1.589 -11.854,3.176 -17.809,4.773 -0.812,0.217 -2.007,0.258 -2.613,0.096 -4.397,-1.178 -8.809,-2.352 -13.176,-3.522 m 20.854,5.57 c 4.367,1.17 8.736,2.341 13.174,3.522 0.608,0.162 1.775,0.114 2.601,-0.108 5.926,-1.586 11.85,-3.173 17.837,-4.763 0.811,-0.216 0.996,-0.53 0.387,-0.693 -4.438,-1.18 -8.836,-2.358 -13.175,-3.521 -0.607,-0.162 -1.803,-0.123 -2.629,0.1 -5.942,1.591 -11.869,3.178 -17.852,4.767 -0.795,0.211 -0.95,0.533 -0.343,0.696 m 20,5.35 c -0.606,-0.161 -0.424,-0.475 0.401,-0.697 5.943,-1.59 11.852,-3.173 17.838,-4.764 0.812,-0.215 1.978,-0.265 2.586,-0.102 4.395,1.178 8.822,2.361 13.289,3.555 0.609,0.162 0.423,0.477 -0.387,0.692 -5.941,1.591 -11.852,3.171 -17.838,4.759 -0.811,0.216 -1.991,0.269 -2.598,0.107 -4.455,-1.192 -8.88,-2.376 -13.291,-3.55 m 20.131,5.377 c 4.337,1.162 8.749,2.337 13.158,3.511 0.551,0.148 1.78,0.128 2.616,-0.09 5.973,-1.574 11.851,-3.175 17.822,-4.761 0.811,-0.216 0.966,-0.537 0.358,-0.699 -4.396,-1.179 -8.779,-2.345 -13.144,-3.516 -0.579,-0.154 -1.746,-0.105 -2.558,0.111 -5.97,1.585 -11.88,3.163 -17.821,4.755 -0.811,0.216 -1.009,0.535 -0.431,0.689 m 20.766,5.55 c -0.591,-0.155 -0.423,-0.474 0.386,-0.69 5.987,-1.592 11.882,-3.166 17.824,-4.758 0.81,-0.216 2.007,-0.257 2.613,-0.095 4.383,1.166 8.779,2.344 13.232,3.536 0.609,0.162 0.425,0.477 -0.387,0.692 -5.926,1.588 -11.867,3.161 -17.823,4.761 -0.808,0.217 -1.977,0.266 -2.584,0.103 -4.455,-1.195 -8.848,-2.382 -13.261,-3.549 m 20.073,5.366 c 7.765,2.073 15.517,4.15 23.34,6.238 0.608,0.162 1.774,0.113 2.599,-0.107 5.927,-1.589 11.853,-3.177 17.767,-4.761 0.809,-0.217 1.01,-0.534 0.401,-0.697 -7.78,-2.083 -15.546,-4.155 -23.267,-6.224 -0.608,-0.164 -1.791,-0.108 -2.603,0.107 -5.97,1.585 -11.88,3.166 -17.821,4.759 -0.811,0.218 -0.994,0.531 -0.416,0.685 m 37.045,-4.534 c -0.634,-0.172 -0.452,-0.485 0.359,-0.701 5.957,-1.581 11.886,-3.168 17.783,-4.746 0.811,-0.217 1.978,-0.268 2.615,-0.097 4.397,1.178 8.822,2.363 13.249,3.546 0.605,0.164 0.422,0.476 -0.373,0.688 -5.913,1.585 -11.845,3.172 -17.786,4.749 -0.826,0.22 -1.977,0.267 -2.584,0.105 -4.412,-1.175 -8.865,-2.367 -13.263,-3.544 m -20.029,-5.36 c -0.607,-0.164 -0.422,-0.476 0.402,-0.696 5.913,-1.584 11.827,-3.167 17.783,-4.747 0.812,-0.216 1.978,-0.266 2.586,-0.104 4.397,1.176 8.793,2.357 13.161,3.526 0.607,0.162 0.422,0.478 -0.388,0.692 -5.897,1.58 -11.842,3.17 -17.785,4.748 -0.809,0.216 -1.976,0.268 -2.584,0.106 -4.368,-1.172 -8.807,-2.355 -13.175,-3.525 m -20.028,-5.357 c 4.395,1.176 8.808,2.353 13.173,3.522 0.608,0.163 1.804,0.119 2.6,-0.093 5.97,-1.585 11.886,-3.166 17.813,-4.755 0.812,-0.218 0.966,-0.537 0.358,-0.7 -4.369,-1.17 -8.763,-2.347 -13.162,-3.526 -0.605,-0.163 -1.774,-0.112 -2.584,0.104 -5.927,1.586 -11.856,3.173 -17.812,4.757 -0.811,0.213 -0.994,0.528 -0.386,0.691 m -20.84,-5.579 c -0.606,-0.162 -0.452,-0.482 0.357,-0.698 5.944,-1.594 11.915,-3.16 17.841,-4.749 0.812,-0.217 1.976,-0.266 2.585,-0.104 4.426,1.186 8.851,2.373 13.218,3.544 0.607,0.162 0.465,0.467 -0.371,0.689 -5.93,1.574 -11.886,3.164 -17.857,4.751 -0.796,0.212 -1.934,0.268 -2.541,0.106 -4.366,-1.17 -8.807,-2.352 -13.232,-3.539 m -20.088,-5.37 c 4.368,1.169 8.809,2.35 13.204,3.529 0.636,0.168 1.779,0.126 2.614,-0.097 5.932,-1.574 11.886,-3.167 17.811,-4.756 0.811,-0.216 0.995,-0.53 0.358,-0.699 -4.398,-1.177 -8.821,-2.364 -13.219,-3.542 -0.607,-0.162 -1.773,-0.112 -2.583,0.103 -5.927,1.589 -11.855,3.177 -17.797,4.768 -0.81,0.217 -0.994,0.532 -0.388,0.694 m -20.057,-5.365 c -0.593,-0.159 -0.395,-0.468 0.415,-0.687 5.941,-1.592 11.869,-3.18 17.81,-4.771 0.811,-0.217 1.978,-0.266 2.555,-0.111 4.455,1.193 8.88,2.379 13.277,3.557 0.579,0.153 0.396,0.468 -0.415,0.685 -5.926,1.586 -11.855,3.173 -17.825,4.758 -0.811,0.216 -1.977,0.268 -2.528,0.12 -4.424,-1.186 -8.819,-2.369 -13.289,-3.551 M 199.666,27.79 c 4.352,1.159 8.793,2.342 13.19,3.52 0.607,0.163 1.775,0.115 2.583,-0.105 5.942,-1.592 11.873,-3.18 17.811,-4.77 0.811,-0.218 0.994,-0.53 0.386,-0.692 -4.395,-1.18 -8.822,-2.365 -13.158,-3.528 -0.609,-0.162 -1.776,-0.112 -2.584,0.102 -5.944,1.594 -11.87,3.181 -17.827,4.778 -0.808,0.217 -1.007,0.534 -0.401,0.695 m -20.059,-5.365 c -0.606,-0.16 -0.422,-0.475 0.403,-0.695 5.939,-1.591 11.883,-3.185 17.822,-4.777 0.812,-0.217 1.978,-0.266 2.586,-0.104 4.425,1.185 8.852,2.369 13.319,3.559 0.609,0.16 0.395,0.469 -0.415,0.685 -5.941,1.593 -11.898,3.187 -17.823,4.776 -0.812,0.217 -1.965,0.278 -2.57,0.116 -4.427,-1.186 -8.881,-2.379 -13.322,-3.56 M 159.52,17.052 c 4.44,1.175 8.868,2.354 13.292,3.546 0.58,0.157 1.746,0.113 2.571,-0.11 5.939,-1.591 11.883,-3.185 17.822,-4.776 0.811,-0.215 0.995,-0.536 0.415,-0.692 -4.453,-1.2 -8.851,-2.368 -13.276,-3.547 -0.578,-0.156 -1.774,-0.114 -2.584,0.102 -5.94,1.588 -11.868,3.197 -17.809,4.787 -0.825,0.222 -0.98,0.546 -0.431,0.69 m -20.81,-5.566 c -0.606,-0.163 -0.408,-0.479 0.388,-0.693 5.941,-1.606 11.897,-3.208 17.838,-4.797 0.808,-0.217 1.975,-0.267 2.583,-0.103 4.367,1.17 8.793,2.356 13.217,3.541 0.58,0.153 0.453,0.483 -0.357,0.7 -5.939,1.588 -11.868,3.197 -17.808,4.789 -0.825,0.22 -2.021,0.263 -2.628,0.099 -4.396,-1.184 -8.851,-2.377 -13.233,-3.536 M 118.782,6.144 c 4.34,1.162 8.736,2.335 13.074,3.504 0.636,0.171 1.803,0.122 2.613,-0.095 5.955,-1.597 11.91,-3.199 17.838,-4.797 0.809,-0.219 0.992,-0.53 0.356,-0.7 -4.338,-1.17 -8.734,-2.343 -13.102,-3.514 -0.607,-0.162 -1.775,-0.114 -2.599,0.107 -5.911,1.596 -11.867,3.195 -17.821,4.79 -0.812,0.218 -0.993,0.535 -0.359,0.705 M 98.668,0.765 c -0.607,-0.163 -0.454,-0.488 0.356,-0.704 5.954,-1.594 11.897,-3.205 17.836,-4.793 0.81,-0.217 2.006,-0.26 2.613,-0.097 4.366,1.171 8.807,2.352 13.291,3.552 0.608,0.163 0.424,0.476 -0.401,0.697 -5.94,1.588 -11.868,3.193 -17.836,4.793 -0.811,0.217 -1.948,0.269 -2.555,0.107 -4.484,-1.2 -8.909,-2.378 -13.304,-3.555 M 77.799,-4.823 c 4.339,1.165 8.764,2.35 13.219,3.539 0.606,0.16 1.802,0.118 2.611,-0.1 5.942,-1.603 11.897,-3.205 17.85,-4.797 0.811,-0.216 0.964,-0.533 0.3,-0.709 -4.398,-1.173 -8.822,-2.365 -13.16,-3.526 -0.608,-0.162 -1.775,-0.115 -2.584,0.103 -5.925,1.598 -11.88,3.201 -17.821,4.798 -0.81,0.217 -1.022,0.529 -0.415,0.692 m -30.051,-8.048 c -0.62,-0.163 -0.423,-0.473 0.401,-0.697 5.939,-1.604 11.895,-3.203 17.832,-4.791 0.84,-0.224 2.007,-0.274 2.614,-0.112 7.694,2.064 15.417,4.141 23.198,6.227 0.607,0.162 0.424,0.475 -0.385,0.692 -5.926,1.592 -11.896,3.196 -17.822,4.796 -0.809,0.219 -1.991,0.271 -2.598,0.109 -7.809,-2.086 -15.502,-4.163 -23.24,-6.224 m 27.084,-7.273 c 11.02,2.962 22.069,5.925 33.175,8.901 0.609,0.161 1.761,0.117 2.585,-0.106 5.987,-1.604 11.915,-3.207 17.868,-4.804 0.825,-0.221 0.992,-0.53 0.385,-0.693 -11.108,-2.974 -22.157,-5.951 -33.177,-8.906 -0.607,-0.162 -1.745,-0.103 -2.57,0.116 -5.952,1.597 -11.923,3.197 -17.909,4.801 -0.825,0.22 -0.963,0.529 -0.357,0.691 m 39.974,10.721 c 4.396,1.178 8.821,2.364 13.247,3.549 0.607,0.162 1.761,0.119 2.585,-0.103 5.958,-1.612 11.915,-3.21 17.852,-4.801 0.825,-0.221 0.994,-0.531 0.358,-0.701 -4.425,-1.184 -8.808,-2.368 -13.204,-3.544 -0.579,-0.156 -1.76,-0.119 -2.586,0.102 -5.953,1.596 -11.908,3.194 -17.867,4.805 -0.824,0.223 -0.963,0.538 -0.385,0.693 m 20.941,5.609 c -0.608,-0.163 -0.439,-0.47 0.386,-0.692 5.987,-1.603 11.915,-3.208 17.854,-4.8 0.825,-0.221 1.976,-0.267 2.583,-0.104 4.426,1.185 8.824,2.361 13.176,3.536 0.578,0.155 0.41,0.462 -0.414,0.686 -5.912,1.597 -11.867,3.196 -17.839,4.795 -0.826,0.221 -1.978,0.268 -2.556,0.113 -4.367,-1.172 -8.765,-2.348 -13.19,-3.534 m 19.987,5.355 c 4.368,1.172 8.764,2.351 13.19,3.534 0.607,0.162 1.731,0.112 2.556,-0.11 5.972,-1.6 11.93,-3.197 17.869,-4.789 0.825,-0.22 0.994,-0.53 0.385,-0.692 -4.425,-1.186 -8.822,-2.365 -13.162,-3.528 -0.635,-0.169 -1.788,-0.124 -2.612,0.097 -5.94,1.591 -11.896,3.191 -17.839,4.797 -0.826,0.223 -0.994,0.529 -0.387,0.691 m 19.987,5.356 c -0.578,-0.156 -0.409,-0.463 0.416,-0.684 5.972,-1.601 11.929,-3.195 17.87,-4.79 0.825,-0.22 1.974,-0.266 2.555,-0.111 4.411,1.188 8.806,2.37 13.173,3.539 0.609,0.162 0.44,0.471 -0.384,0.691 -5.94,1.595 -11.881,3.187 -17.827,4.794 -0.824,0.223 -1.978,0.265 -2.585,0.102 C 184.544,9.26 180.175,8.09 175.721,6.897 m 20.912,5.595 c -0.634,-0.172 -0.497,-0.48 0.33,-0.7 5.973,-1.6 11.915,-3.191 17.855,-4.784 0.825,-0.222 1.978,-0.267 2.613,-0.098 4.368,1.172 8.809,2.369 13.204,3.547 0.608,0.162 0.469,0.479 -0.372,0.704 -5.91,1.583 -11.853,3.175 -17.826,4.777 -0.827,0.219 -1.977,0.265 -2.614,0.096 -4.397,-1.178 -8.822,-2.365 -13.19,-3.542 m 20.133,5.4 c -0.637,-0.17 -0.443,-0.485 0.357,-0.702 5.97,-1.612 11.887,-3.201 17.797,-4.783 0.84,-0.226 2.02,-0.262 2.658,-0.092 4.339,1.161 8.707,2.333 13.104,3.514 0.606,0.162 0.438,0.47 -0.402,0.694 -5.925,1.588 -11.869,3.181 -17.826,4.778 -0.826,0.22 -1.979,0.264 -2.586,0.103 -4.397,-1.18 -8.765,-2.349 -13.102,-3.512 m 19.957,5.339 c -0.634,-0.169 -0.466,-0.469 0.359,-0.692 5.957,-1.594 11.899,-3.185 17.826,-4.775 0.84,-0.225 1.981,-0.273 2.614,-0.104 4.37,1.165 8.765,2.351 13.133,3.528 0.608,0.163 0.497,0.488 -0.344,0.711 -5.94,1.574 -11.882,3.167 -17.842,4.763 -0.825,0.22 -2.006,0.259 -2.615,0.097 -4.394,-1.179 -8.762,-2.363 -13.131,-3.528 m 20.826,5.589 c 4.34,1.161 8.734,2.341 13.161,3.526 0.607,0.162 1.759,0.117 2.585,-0.104 5.96,-1.597 11.859,-3.193 17.798,-4.766 0.843,-0.224 1.009,-0.536 0.403,-0.698 -4.425,-1.184 -8.75,-2.358 -13.147,-3.529 -0.549,-0.146 -1.73,-0.109 -2.571,0.114 -5.94,1.574 -11.913,3.161 -17.87,4.755 -0.827,0.222 -0.937,0.546 -0.359,0.702 m 19.987,5.353 c -0.606,-0.161 -0.437,-0.47 0.387,-0.693 5.959,-1.593 11.917,-3.177 17.828,-4.757 0.842,-0.225 1.993,-0.27 2.629,-0.101 4.426,1.179 8.778,2.359 13.247,3.564 0.607,0.163 0.468,0.464 -0.372,0.689 -5.91,1.58 -11.884,3.167 -17.827,4.759 -0.827,0.22 -1.98,0.264 -2.586,0.102 -4.485,-1.201 -8.882,-2.376 -13.306,-3.563 m 20.132,5.394 c 4.368,1.17 8.734,2.341 13.131,3.521 0.608,0.162 1.789,0.124 2.615,-0.097 5.945,-1.593 11.874,-3.181 17.815,-4.757 0.826,-0.217 0.965,-0.54 0.357,-0.703 -4.397,-1.178 -8.734,-2.353 -13.103,-3.515 -0.605,-0.16 -1.759,-0.108 -2.57,0.108 -5.94,1.573 -11.885,3.167 -17.83,4.759 -0.825,0.22 -1.022,0.52 -0.415,0.684 m 20.768,5.565 c -0.608,-0.161 -0.469,-0.481 0.358,-0.699 6.002,-1.586 11.932,-3.175 17.843,-4.755 0.827,-0.221 2.02,-0.26 2.615,-0.1 4.337,1.175 8.721,2.35 13.177,3.544 0.605,0.162 0.438,0.477 -0.388,0.697 -5.897,1.579 -11.855,3.161 -17.801,4.75 -0.826,0.223 -1.979,0.268 -2.585,0.104 -4.456,-1.193 -8.853,-2.371 -13.219,-3.541 m 20.016,5.363 c 7.75,2.076 15.503,4.145 23.283,6.228 0.608,0.162 1.76,0.118 2.586,-0.103 5.946,-1.593 11.847,-3.177 17.76,-4.761 0.825,-0.221 0.993,-0.529 0.386,-0.692 -7.751,-2.073 -15.491,-4.141 -23.241,-6.225 -0.582,-0.155 -1.73,-0.108 -2.557,0.11 -5.926,1.573 -11.828,3.174 -17.801,4.76 -0.827,0.219 -1.023,0.521 -0.416,0.683 m 17.037,-9.899 c -0.635,-0.168 -0.439,-0.466 0.388,-0.687 5.939,-1.581 11.81,-3.169 17.752,-4.758 0.825,-0.222 2.036,-0.267 2.642,-0.105 11.094,2.972 22.117,5.925 33.194,8.905 0.608,0.164 0.424,0.475 -0.416,0.7 -5.944,1.59 -11.841,3.17 -17.725,4.747 -0.84,0.225 -1.992,0.272 -2.597,0.108 -11.153,-2.984 -22.173,-5.937 -33.238,-8.91 m -19.973,-5.353 c 4.367,1.17 8.778,2.353 13.147,3.532 0.579,0.154 1.76,0.116 2.6,-0.109 5.924,-1.577 11.823,-3.154 17.794,-4.747 0.857,-0.23 1.011,-0.55 0.432,-0.704 -4.397,-1.178 -8.795,-2.358 -13.146,-3.524 -0.637,-0.17 -1.805,-0.119 -2.659,0.109 -5.956,1.581 -11.87,3.165 -17.783,4.751 -0.809,0.217 -1.021,0.521 -0.385,0.692 m -20.827,-5.598 c -0.606,-0.163 -0.438,-0.47 0.372,-0.687 5.911,-1.587 11.839,-3.175 17.794,-4.763 0.842,-0.223 2.036,-0.26 2.616,-0.105 4.424,1.192 8.882,2.373 13.233,3.548 0.637,0.172 0.454,0.483 -0.387,0.709 -5.97,1.585 -11.883,3.167 -17.78,4.751 -0.825,0.22 -1.993,0.268 -2.628,0.098 -4.368,-1.169 -8.821,-2.373 -13.22,-3.551 m -20.117,-5.397 c 4.41,1.19 8.808,2.369 13.262,3.555 0.636,0.17 1.788,0.127 2.613,-0.096 5.898,-1.583 11.825,-3.17 17.782,-4.751 0.855,-0.227 1.038,-0.542 0.401,-0.711 -4.425,-1.185 -8.851,-2.367 -13.234,-3.555 -0.607,-0.164 -1.775,-0.113 -2.6,0.108 -5.958,1.598 -11.87,3.182 -17.824,4.764 -0.811,0.215 -1.008,0.525 -0.4,0.686 m -20.004,-5.373 c -0.577,-0.155 -0.408,-0.463 0.401,-0.682 5.94,-1.589 11.836,-3.17 17.796,-4.769 0.825,-0.223 1.992,-0.272 2.571,-0.117 4.426,1.192 8.851,2.38 13.292,3.569 0.577,0.156 0.393,0.469 -0.432,0.689 -5.986,1.594 -11.884,3.172 -17.809,4.759 -0.825,0.222 -1.977,0.267 -2.556,0.113 -4.426,-1.179 -8.85,-2.367 -13.263,-3.562 m -20.812,-5.577 c -0.607,-0.163 -0.409,-0.464 0.4,-0.68 5.942,-1.593 11.853,-3.174 17.811,-4.773 0.841,-0.225 1.977,-0.282 2.586,-0.118 4.366,1.169 8.778,2.355 13.205,3.533 0.605,0.162 0.407,0.48 -0.433,0.707 -5.942,1.596 -11.854,3.179 -17.779,4.765 -0.825,0.223 -1.979,0.267 -2.585,0.106 -4.426,-1.181 -8.851,-2.366 -13.205,-3.54 m -20.045,-5.37 c -0.607,-0.163 -0.424,-0.475 0.385,-0.693 5.913,-1.598 11.837,-3.187 17.78,-4.779 0.842,-0.227 2.007,-0.274 2.615,-0.112 4.426,1.184 8.882,2.379 13.321,3.575 0.606,0.164 0.395,0.469 -0.445,0.693 -5.958,1.596 -11.869,3.181 -17.795,4.768 -0.825,0.222 -1.948,0.275 -2.556,0.11 -4.454,-1.192 -8.895,-2.373 -13.305,-3.562 M 213.62,2.538 c -0.577,-0.155 -0.438,-0.473 0.402,-0.697 5.925,-1.589 11.867,-3.18 17.824,-4.777 0.825,-0.22 2.02,-0.262 2.599,-0.108 4.398,1.18 8.781,2.362 13.234,3.555 0.608,0.163 0.424,0.475 -0.432,0.703 -5.927,1.589 -11.868,3.182 -17.778,4.766 -0.84,0.225 -1.992,0.27 -2.601,0.108 -4.424,-1.186 -8.85,-2.372 -13.248,-3.55 m -20.811,-5.584 c -0.609,-0.161 -0.439,-0.472 0.416,-0.702 5.924,-1.586 11.793,-3.191 17.75,-4.788 0.825,-0.22 2.021,-0.261 2.629,-0.099 4.367,1.17 8.823,2.365 13.204,3.546 0.607,0.163 0.453,0.484 -0.371,0.704 -5.958,1.597 -11.886,3.185 -17.81,4.774 -0.839,0.224 -2.02,0.26 -2.6,0.106 -4.424,-1.185 -8.85,-2.371 -13.218,-3.541 m -19.974,-5.362 c 4.368,1.171 8.736,2.342 13.132,3.521 0.637,0.17 1.789,0.125 2.629,-0.099 5.925,-1.588 11.837,-3.19 17.779,-4.783 0.84,-0.223 1.024,-0.536 0.389,-0.707 -4.398,-1.178 -8.737,-2.358 -13.106,-3.529 -0.606,-0.162 -1.759,-0.102 -2.585,0.119 -5.958,1.601 -11.913,3.183 -17.823,4.778 -0.854,0.23 -1.021,0.538 -0.415,0.7 m -20.088,-5.387 c -0.58,-0.155 -0.425,-0.475 0.414,-0.7 5.939,-1.589 11.836,-3.185 17.793,-4.785 0.825,-0.222 2.037,-0.267 2.615,-0.112 4.398,1.177 8.826,2.358 13.292,3.569 0.594,0.16 0.409,0.476 -0.416,0.699 -5.958,1.6 -11.854,3.196 -17.795,4.784 -0.825,0.22 -1.991,0.271 -2.598,0.11 -4.483,-1.201 -8.909,-2.387 -13.305,-3.565 m -50.794,-13.642 c 14.332,3.851 28.752,7.721 43.185,11.588 0.58,0.157 1.786,0.113 2.586,-0.102 5.934,-1.602 11.835,-3.185 17.807,-4.79 0.839,-0.226 0.966,-0.553 0.388,-0.709 -14.391,-3.862 -28.841,-7.737 -43.117,-11.57 -0.607,-0.162 -1.774,-0.113 -2.599,0.108 -5.957,1.596 -11.912,3.195 -17.865,4.787 -0.823,0.22 -0.993,0.527 -0.385,0.688 m 27.077,-7.251 c -0.607,-0.164 -0.425,-0.476 0.385,-0.693 5.96,-1.596 11.889,-3.197 17.807,-4.78 0.81,-0.217 1.935,-0.257 2.542,-0.095 10.991,2.943 22.027,5.905 33.132,8.878 0.609,0.164 0.423,0.476 -0.386,0.692 -5.932,1.591 -11.831,3.188 -17.79,4.783 -0.81,0.215 -1.977,0.266 -2.584,0.103 -11.093,-2.974 -22.159,-5.947 -33.106,-8.888 m 39.905,10.709 c 4.352,1.174 8.764,2.365 13.189,3.551 0.637,0.169 1.818,0.117 2.629,-0.101 5.93,-1.599 11.885,-3.187 17.786,-4.781 0.811,-0.218 0.951,-0.532 0.315,-0.705 -4.382,-1.179 -8.806,-2.367 -13.175,-3.537 -0.577,-0.155 -1.76,-0.117 -2.57,0.101 -5.931,1.586 -11.859,3.181 -17.789,4.78 -0.81,0.218 -0.964,0.536 -0.385,0.692 m 20.898,5.624 c -0.637,-0.171 -0.413,-0.495 0.372,-0.705 5.955,-1.606 11.857,-3.194 17.802,-4.786 0.796,-0.213 1.963,-0.262 2.598,-0.091 4.426,1.185 8.822,2.361 13.174,3.536 0.609,0.164 0.425,0.475 -0.37,0.689 -5.945,1.591 -11.886,3.187 -17.801,4.784 -0.825,0.223 -1.992,0.272 -2.6,0.109 -4.353,-1.175 -8.75,-2.354 -13.175,-3.536 m 19.975,5.357 c 19.147,5.147 38.297,10.289 57.519,15.451 19.093,5.127 38.315,10.284 57.462,15.432 0.608,0.164 1.774,0.115 2.601,-0.105 5.941,-1.589 11.895,-3.183 17.862,-4.778 0.81,-0.214 1.007,-0.532 0.398,-0.694 -19.146,-5.147 -38.409,-10.309 -57.5,-15.434 -19.218,-5.163 -38.411,-10.31 -57.573,-15.452 -0.606,-0.162 -1.773,-0.116 -2.586,0.102 -5.897,1.596 -11.841,3.189 -17.783,4.783 -0.826,0.219 -1.009,0.533 -0.4,0.695 m 121.866,32.723 c -0.635,-0.173 -0.452,-0.488 0.373,-0.707 5.971,-1.581 11.925,-3.176 17.862,-4.766 0.808,-0.217 1.977,-0.266 2.61,-0.096 4.397,1.178 8.853,2.371 13.262,3.559 0.637,0.17 0.481,0.478 -0.37,0.704 -5.924,1.577 -11.932,3.177 -17.889,4.768 -0.81,0.217 -1.977,0.267 -2.613,0.095 -4.426,-1.191 -8.852,-2.379 -13.235,-3.557 m 20.133,5.407 c 4.339,1.165 8.676,2.34 13.089,3.523 0.607,0.162 1.805,0.115 2.615,-0.102 5.956,-1.596 11.938,-3.184 17.873,-4.771 0.824,-0.221 0.977,-0.544 0.398,-0.698 -4.41,-1.189 -8.778,-2.36 -13.116,-3.522 -0.607,-0.163 -1.747,-0.119 -2.598,0.105 -5.967,1.573 -11.92,3.177 -17.875,4.774 -0.809,0.215 -1.022,0.521 -0.386,0.691 m 20.727,5.563 c -0.578,-0.156 -0.451,-0.472 0.386,-0.692 5.958,-1.584 11.938,-3.184 17.873,-4.774 0.823,-0.218 2.019,-0.261 2.597,-0.105 4.368,1.169 8.779,2.358 13.204,3.544 0.607,0.162 0.439,0.49 -0.371,0.704 -5.976,1.587 -11.946,3.168 -17.9,4.764 -0.809,0.217 -1.977,0.264 -2.583,0.103 -4.456,-1.186 -8.853,-2.373 -13.206,-3.544 m 20.001,5.38 c 7.665,2.06 15.434,4.141 23.143,6.211 0.605,0.162 1.773,0.113 2.597,-0.109 5.941,-1.59 11.968,-3.175 17.914,-4.767 0.81,-0.218 0.961,-0.537 0.355,-0.7 -7.709,-2.069 -15.445,-4.15 -23.124,-6.213 -0.636,-0.173 -1.817,-0.116 -2.625,0.099 -5.949,1.593 -11.904,3.187 -17.887,4.776 -0.811,0.216 -1.009,0.534 -0.373,0.703"
         style="fill:#626169;fill-opacity:1;fill-rule:evenodd;stroke:none"
         transform="matrix(1.3333333,0,0,-1.3333333,184.73693,552.1016)"
         clip-path="url(#clipPath12)" />
      <path
         id="path13"
         d="m 0,0 c 24.622,6.631 48.658,-10.548 53.687,-38.37 5.03,-27.821 -10.852,-55.751 -35.473,-62.381 -24.622,-6.63 -48.657,10.548 -53.687,38.371 C -40.502,-34.559 -24.621,-6.63 0,0"
         style="fill:#e7e2ee;fill-opacity:1;fill-rule:evenodd;stroke:none"
         transform="matrix(1.3333333,0,0,-1.3333333,294.79947,216.28)"
         clip-path="url(#clipPath14)" />
      <path
         id="path15"
         d="m 0,0 c -6.412,-11.399 -16.59,-20.132 -28.981,-23.47 -12.392,-3.338 -24.636,-0.641 -34.383,6.406 2.297,15.411 12.84,28.766 27.32,32.666 C -21.564,19.5 -7.396,12.8 0,0"
         style="fill:#cc2d23;fill-opacity:1;fill-rule:evenodd;stroke:none"
         transform="matrix(1.3333333,0,0,-1.3333333,357.72653,319.3216)"
         clip-path="url(#clipPath16)" />
      <path
         id="path17"
         d="m 0,0 c 1.816,1.853 3.811,3.512 5.958,4.936 2.704,1.796 4.069,5.206 3.451,8.624 l -2.22,12.276 11.058,2.977 2.22,-12.275 c 0.617,-3.418 3.032,-5.811 6.103,-6.05 2.44,-0.191 4.82,-0.671 7.107,-1.419 C 32.836,4.562 26.454,-0.382 18.133,-2.624 9.811,-4.864 2.316,-3.658 0,0"
         style="fill:#f28f62;fill-opacity:1;fill-rule:evenodd;stroke:none"
         transform="matrix(1.3333333,0,0,-1.3333333,288.40693,311.15293)"
         clip-path="url(#clipPath18)" />
      <path
         id="path19"
         d="M 0,0 -1.764,9.756 9.294,12.733 11.513,0.458 c 0.161,-0.894 0.446,-1.717 0.833,-2.45 C 11.996,-2.12 11.642,-2.232 11.28,-2.329 7.277,-3.408 3.286,-2.445 0,0"
         style="fill:#cf663c;fill-opacity:1;fill-rule:evenodd;stroke:none"
         transform="matrix(1.3333333,0,0,-1.3333333,300.34507,289.7136)"
         clip-path="url(#clipPath20)" />
      <path
         id="path21"
         d="m 0,0 c 8.384,2.258 16.722,-4.436 18.624,-14.952 1.9,-10.514 -3.356,-20.87 -11.74,-23.128 -8.386,-2.258 -16.723,4.436 -18.624,14.952 C -13.642,-12.613 -8.385,-2.258 0,0"
         style="fill:#f28f62;fill-opacity:1;fill-rule:evenodd;stroke:none"
         transform="matrix(1.3333333,0,0,-1.3333333,299.0072,239.54947)"
         clip-path="url(#clipPath22)" />
      <path
         id="path23"
         d="m 0,0 82.091,22.106 c 4.212,1.134 8.296,-1.463 9.075,-5.771 0.779,-4.309 -2.031,-8.763 -6.243,-9.898 L 2.833,-15.669 c -4.213,-1.134 -8.298,1.463 -9.077,5.772 C -7.022,-5.589 -4.213,-1.135 0,0"
         style="fill:#46454b;fill-opacity:1;fill-rule:evenodd;stroke:none"
         transform="matrix(1.3333333,0,0,-1.3333333,266.0312,374.60547)"
         clip-path="url(#clipPath24)" />
      <path
         id="path25"
         d="m 0,0 82.089,22.108 c 4.213,1.135 8.298,-1.463 9.076,-5.771 h 10e-4 C 91.944,12.027 89.135,7.575 84.921,6.439 L 2.832,-15.667 c -4.212,-1.135 -8.297,1.463 -9.075,5.771 C -7.022,-5.586 -4.213,-1.133 0,0"
         style="fill:#46454b;fill-opacity:1;fill-rule:evenodd;stroke:none"
         transform="matrix(1.3333333,0,0,-1.3333333,271.48107,404.75387)"
         clip-path="url(#clipPath26)" />
      <path
         id="path27"
         d="m 0,0 21.323,5.742 c 4.212,1.135 8.297,-1.463 9.075,-5.771 0.78,-4.309 -2.029,-8.762 -6.242,-9.896 L 2.832,-15.668 c -4.213,-1.135 -8.297,1.463 -9.076,5.772 C -7.023,-5.588 -4.213,-1.135 0,0"
         style="fill:#626169;fill-opacity:1;fill-rule:evenodd;stroke:none"
         transform="matrix(1.3333333,0,0,-1.3333333,317.1556,422.4024)"
         clip-path="url(#clipPath28)" />
    </g>
  </g>
</svg>
