<?xml version="1.0" encoding="UTF-8" standalone="no"?>
<!-- Created with Inkscape (http://www.inkscape.org/) -->

<svg
   width="24"
   height="24"
   viewBox="0 0 6.3499999 6.35"
   version="1.1"
   id="svg1"
   xml:space="preserve"
   xmlns:inkscape="http://www.inkscape.org/namespaces/inkscape"
   xmlns:sodipodi="http://sodipodi.sourceforge.net/DTD/sodipodi-0.dtd"
   xmlns="http://www.w3.org/2000/svg"
   xmlns:svg="http://www.w3.org/2000/svg"><sodipodi:namedview
     id="namedview1"
     pagecolor="#ffffff"
     bordercolor="#000000"
     borderopacity="0.25"
     inkscape:showpageshadow="2"
     inkscape:pageopacity="0.0"
     inkscape:pagecheckerboard="0"
     inkscape:deskcolor="#d1d1d1"><inkscape:page
       x="0"
       y="0"
       width="6.3499999"
       height="6.3499999"
       id="page3"
       margin="0"
       bleed="0" /></sodipodi:namedview><g
     id="g1"
     transform="matrix(0.04503615,0,0,0.04503615,13.577342,-62.784116)"><path
       width="256"
       height="256"
       d="m -235.21535,1532.6279 c -2.03729,-1.2936 -6.76613,-4.2301 -10.50853,-6.5255 l -6.80436,-4.1734 -0.009,-16.272 -0.009,-16.2721 -5.75469,-3.5968 -5.75469,-3.5967 v -36.9238 l 16.76158,-9.5951 16.76158,-9.5952 2.6853,1.5613 c 1.47691,0.8587 8.81701,5.1619 16.31133,9.5627 l 13.62605,8.0015 0.0664,19.3131 0.0664,19.3131 -12.74027,7.1438 c -7.00715,3.929 -12.90085,7.1822 -13.09712,7.2293 -0.29315,0.07 -0.35685,-1.2789 -0.35685,-7.5581 v -7.6437 l 2.3151,-1.1636 c 1.87994,-0.9449 2.79195,-1.6379 4.85198,-3.6867 2.17251,-2.1607 2.71442,-2.8841 3.77294,-5.0366 1.60314,-3.26 2.2989,-6.0373 2.31994,-9.2604 0.0332,-5.0906 -1.52164,-9.1649 -5.28161,-13.8397 -4.64245,-5.7719 -11.72165,-8.7224 -18.18236,-7.5781 -6.7073,1.188 -12.03059,5.1527 -15.06147,11.2176 -1.78383,3.5695 -2.11893,5.12 -2.11872,9.8033 2.1e-4,4.7258 0.46419,7.088 1.98971,10.1301 1.80353,3.5964 4.81688,6.3884 9.07995,8.4129 l 2.02704,0.9626 0.006,14.7212 0.006,14.7211 3.35971,2.102 c 1.84784,1.156 3.55991,2.1085 3.80458,2.1166 0.24468,0.01 10.57469,-5.7002 22.9556,-12.6852 l 22.51071,-12.7 -0.0613,-26.5809 -0.0613,-26.5808 -22.225,-13.1638 c -12.9211,-7.6532 -22.42111,-13.122 -22.69345,-13.0639 -0.25765,0.055 -10.70534,5.9743 -23.2171,13.154 l -22.74864,13.0541 -9e-5,25.0046 -1e-4,25.0046 4.8948,3.1329 4.89479,3.133 v 9.2569 c 0,5.4157 -0.0994,9.2203 -0.23958,9.1687 -0.13177,-0.049 -5.84479,-3.6005 -12.6956,-7.8934 l -12.45603,-7.8052 -5.3e-4,-33.8667 -5.3e-4,-33.8666 31.1191,-17.7032 c 24.33359,-13.8429 31.21257,-17.6464 31.54775,-17.4433 0.23576,0.1429 13.79384,8.0991 30.12908,17.6805 l 29.70043,17.4207 -0.0671,35.6996 -0.0671,35.6995 -30.42708,17.1631 c -16.7349,9.4397 -30.60568,17.1575 -30.82396,17.1506 -0.21829,-0.01 -2.06375,-1.0708 -4.10105,-2.3645 z m 2.79233,-59.571 c -2.77757,-0.4215 -5.12162,-2.2688 -6.55239,-5.1638 -0.91708,-1.8556 -0.98574,-2.1609 -0.99379,-4.4192 -0.008,-2.2815 0.0509,-2.5463 0.99093,-4.4487 0.63627,-1.2876 1.39833,-2.3641 2.09667,-2.9619 4.84273,-4.1452 11.71475,-2.6024 14.4561,3.2454 0.61512,1.3122 0.7039,1.8353 0.7039,4.1474 0,2.3121 -0.0888,2.8352 -0.7039,4.1474 -0.97358,2.0768 -2.61712,3.7707 -4.55533,4.6948 -1.82272,0.869 -3.33013,1.0792 -5.44219,0.7586"
       style="fill:currentColor;stroke-width:0.264583"
       id="path1" /></g><defs
     id="defs1"><style
       id="style1">
      .cls-1 {
        fill: #1a2026;
      }

      .cls-2 {
        fill: #6983ff;
        fill-rule: evenodd;
      }
    </style></defs></svg>
